<?xml version="1.0" encoding="UTF-8" standalone="no" ?>
<!DOCTYPE svg PUBLIC "-//W3C//DTD SVG 1.1//EN" "http://www.w3.org/Graphics/SVG/1.1/DTD/svg11.dtd">
<svg xmlns="http://www.w3.org/2000/svg" xmlns:xlink="http://www.w3.org/1999/xlink" version="1.1" width="1080" height="1080" viewBox="0 0 1080 1080" xml:space="preserve">
<desc>Created with Fabric.js 5.2.4</desc>
<defs>
</defs>
<rect x="0" y="0" width="100%" height="100%" fill="transparent"></rect>
<g transform="matrix(1 0 0 1 540 540)" id="ee39e0fa-5d41-4810-bf04-ad6fc6f4c51e"  >
</g>
<g transform="matrix(1 0 0 1 540 540)" id="1e872a04-ee6d-424e-83b3-fd7833c26e1a"  >
<rect style="stroke: none; stroke-width: 1; stroke-dasharray: none; stroke-linecap: butt; stroke-dashoffset: 0; stroke-linejoin: miter; stroke-miterlimit: 4; fill: rgb(255,255,255); fill-rule: nonzero; opacity: 1; visibility: hidden;" vector-effect="non-scaling-stroke"  x="-540" y="-540" rx="0" ry="0" width="1080" height="1080" />
</g>
<g transform="matrix(3.68 0 0 3.68 427.07 613.72)"  >
<path style="stroke: none; stroke-width: 1; stroke-dasharray: none; stroke-linecap: butt; stroke-dashoffset: 0; stroke-linejoin: miter; stroke-miterlimit: 4; fill: rgb(84,86,90); fill-rule: nonzero; opacity: 1;" vector-effect="non-scaling-stroke"  transform=" translate(-232.6, -274.95)" d="M 258.2 360.2 C 197.3 360.2 148 310.9 148 250 C 148 224.1 156.9 200.4 171.8 181.6 L 151.70000000000002 161.2 C 131.60000000000002 185.29999999999998 119.50000000000001 216.2 119.50000000000001 250 C 119.50000000000001 326.6 181.60000000000002 388.7 258.2 388.7 C 291.4 388.7 321.8 377 345.7 357.59999999999997 L 325.59999999999997 337.2 C 306.9 351.6 283.6 360.2 258.2 360.2 z" stroke-linecap="round" />
</g>
<g transform="matrix(3.68 0 0 3.68 599.94 508.6)"  >
<path style="stroke: none; stroke-width: 1; stroke-dasharray: none; stroke-linecap: butt; stroke-dashoffset: 0; stroke-linejoin: miter; stroke-miterlimit: 4; fill: rgb(0,152,69); fill-rule: nonzero; opacity: 1;" vector-effect="non-scaling-stroke"  transform=" translate(-279.55, -246.4)" d="M 364.8 338.3 L 366.40000000000003 336.7 C 385.40000000000003 313 396.8 282.8 396.8 250 C 396.8 173.4 334.7 111.30000000000001 258.1 111.30000000000001 C 225.10000000000002 111.30000000000001 194.8 122.80000000000001 171.00000000000003 142.10000000000002 C 164.10000000000002 147.70000000000002 157.80000000000004 153.8 152.10000000000002 160.60000000000002 C 151.90000000000003 160.8 151.8 161.00000000000003 151.60000000000002 161.20000000000002 L 171.70000000000002 181.60000000000002 C 171.9 181.40000000000003 172.00000000000003 181.20000000000002 172.20000000000002 180.90000000000003 C 177.70000000000002 174.00000000000003 184.10000000000002 167.90000000000003 191.10000000000002 162.50000000000003 C 209.70000000000002 148.30000000000004 232.90000000000003 139.80000000000004 258.1 139.80000000000004 C 319 139.80000000000004 368.3 189.10000000000002 368.3 250.00000000000006 C 368.3 275.70000000000005 359.5 299.30000000000007 344.8 318.00000000000006 C 339.5 324.80000000000007 333.40000000000003 330.90000000000003 326.6 336.30000000000007 C 326.20000000000005 336.6000000000001 325.90000000000003 336.80000000000007 325.5 337.1000000000001 L 345.6 357.50000000000006 L 369.3 381.50000000000006 L 407.5 381.50000000000006 L 364.8 338.3 z" stroke-linecap="round" />
</g>
</svg>