<?xml version="1.0" encoding="utf-8"?>
<!-- Generator: Adobe Illustrator 24.1.0, SVG Export Plug-In . SVG Version: 6.00 Build 0)  -->
<svg version="1.1" id="Layer_1" xmlns="http://www.w3.org/2000/svg" xmlns:xlink="http://www.w3.org/1999/xlink" x="0px" y="0px"
	 width="500px" height="500px" viewBox="0 0 500 500" style="enable-background:new 0 0 500 500;" xml:space="preserve">
<style type="text/css">
	.st0{fill:#FF6D70;}
	.st1{fill:#F8F3EF;}
</style>
<g id="Artwork_3_1_">
	<g>
		<path class="st0" d="M250,0C129.3,0,31.5,97.8,31.5,218.5S129.3,437,250,437s218.5-97.8,218.5-218.5S370.7,0,250,0"/>
		<path class="st1" d="M366.3,248.2c-3.7-2.6-6.3-6-8-10.3c-1.7-4.3-2.5-9-2.5-14.3c0-5.1,1-9.8,3.1-14.1c2.1-4.3,5.2-7.8,9.4-10.5
			c4.2-2.6,9.3-4,15.3-4c3.1,0,5.7,0.2,7.9,0.7c2.2,0.5,4.4,1.4,6.7,2.9l-0.5-20.9c0-2.4-0.9-4.1-2.8-5c-1.9-0.9-4.6-1.5-8.2-1.8
			c-0.4-0.2-0.8-0.4-1-0.8c-0.2-0.3-0.3-0.8-0.3-1.4c0-0.5,0.1-1,0.4-1.6c0.3-0.5,0.6-0.8,0.9-0.8c5.7-0.4,13-0.5,22-0.5h4.5
			c0.4,0,0.8,0.2,1.1,0.5c0.3,0.4,0.5,0.9,0.5,1.7v73c0,1.5,0.3,2.6,0.9,3.3c0.6,0.7,1.3,1.2,2.1,1.4c0.8,0.2,1.8,0.4,3.1,0.5
			c0.8,0.1,1.3,0.2,1.6,0.5c0.3,0.2,0.4,0.8,0.4,1.6c0,0.5-0.2,1-0.5,1.5c-0.4,0.5-0.8,0.8-1.3,0.8h-18.8c-1.4,0-2.4-0.2-3-0.6
			c-0.6-0.4-1-1-1.1-1.7c-0.1-0.7-0.1-1.9-0.1-3.6c-1.8,2.4-4.3,4.3-7.7,5.6c-3.4,1.3-6.8,1.9-10.2,1.9
			C374.6,252.1,370,250.8,366.3,248.2 M393.7,242.9c1.9-0.9,3.2-2.1,4.2-3.8v-32.4c-0.3-0.9-0.9-1.8-1.9-2.7c-1-0.9-2.1-1.7-3.4-2.3
			c-1.3-0.6-2.4-0.9-3.5-0.9c-5.3,0-9.1,2-11.4,5.9c-2.3,4-3.4,9.6-3.4,16.9c0,13.7,4.6,20.6,13.9,20.6
			C390,244.2,391.9,243.7,393.7,242.9"/>
		<path class="st1" d="M228.2,244.6c-5.1-5-7.7-12.2-7.7-21.6c0-5.9,1.4-10.9,4.1-15.2c2.8-4.2,6.5-7.4,11.1-9.6
			c4.6-2.2,9.7-3.3,15.3-3.3c8.1,0,14.1,1.6,18.1,4.7c4,3.2,6.5,7.8,7.5,13.9c0.3,2,0.5,5,0.5,9l-38,0.1c0,5.3,0.8,9.6,2.5,12.9
			c1.7,3.3,3.8,5.6,6.3,7.1s5.3,2.1,8.1,2.1c3.4,0,6.2-0.4,8.5-1.3c2.3-0.9,4.3-2.3,6-4.3c0,0,0.1-0.2,0.3-0.4
			c0.2-0.2,0.3-0.3,0.5-0.4c0.2-0.1,0.4-0.1,0.6-0.1l2.4,1.2c0.4,0.1,0.5,0.4,0.5,0.7c0,0.2-0.1,0.5-0.3,0.9c-2,3.4-4.9,6.1-8.6,8.1
			c-3.8,2-8.5,3-14,3C241.2,252.1,233.3,249.6,228.2,244.6 M256.9,203.9c-1.3-2.8-3.3-4.2-6.1-4.2c-3,0-5.5,1.5-7.6,4.4
			c-2.1,2.9-3.4,7.5-3.9,13.5h19.6C258.8,211.3,258.2,206.8,256.9,203.9"/>
		<path class="st1" d="M281.7,249.8c-0.3-0.5-0.5-1-0.5-1.5c0-0.6,0.1-1.1,0.4-1.4c0.3-0.3,0.7-0.5,1.4-0.6c3.9-0.5,5.8-1.6,5.8-3.5
			V208c0-1.7-0.3-3-0.9-3.8c-0.6-0.9-1.3-1.5-2.2-1.8c-0.8-0.3-1.9-0.5-3.2-0.7c-1.1-0.1-1.7-0.3-1.9-0.3c-0.4-0.2-0.8-0.4-1-0.8
			c-0.2-0.3-0.3-0.8-0.3-1.4c0-0.5,0.1-1,0.4-1.6c0.2-0.5,0.6-0.8,1-0.8c8.5-0.5,16.3-0.8,23.2-0.8c0.4,0,0.7,0.2,1,0.5
			c0.3,0.3,0.5,0.9,0.6,1.7v6.1c0.8-1,2.4-2.2,4.7-3.7c2.3-1.5,5-2.8,8-3.9c3.1-1.1,6.1-1.7,9-1.7c5.4,0,9.7,1.2,12.9,3.5
			c3.2,2.3,4.8,6.6,4.8,12.8V241c0,2,0.5,3.4,1.5,4c1,0.6,2.1,1,3.2,1.1c1.1,0.1,1.8,0.2,2.2,0.2c0.7,0.1,1.1,0.2,1.4,0.5
			c0.3,0.3,0.4,0.8,0.4,1.5c0,0.5-0.2,1-0.5,1.5c-0.3,0.5-0.8,0.7-1.4,0.7h-29.4c-0.6,0-1-0.2-1.4-0.7c-0.3-0.5-0.5-1-0.5-1.5
			c0-0.7,0.1-1.1,0.3-1.5c0.2-0.3,0.7-0.5,1.4-0.6c1.3-0.1,2.6-0.5,3.6-1.2c1.1-0.6,1.6-1.4,1.6-2.4v-31.1c0-1.4-0.1-2.7-0.3-3.8
			c-0.2-1.1-0.8-2.1-1.8-3.1c-1-0.9-2.4-1.4-4.4-1.4c-1.9,0-3.8,0.4-5.7,1.1c-2,0.7-3.7,1.6-5.4,2.7c-1.6,1.1-2.9,2.1-3.8,3.1V241
			c0,1.5,0.3,2.6,0.8,3.3c0.5,0.7,1.2,1.2,1.9,1.5c0.8,0.2,1.8,0.4,3,0.5c0.8,0.1,1.3,0.2,1.6,0.5c0.3,0.2,0.4,0.8,0.4,1.6
			c0,0.5-0.2,1-0.5,1.5c-0.4,0.5-0.8,0.8-1.3,0.8h-28.7C282.5,250.6,282.1,250.3,281.7,249.8"/>
		<path class="st1" d="M218.1,246.7c-0.3-0.2-0.8-0.4-1.6-0.5c-1.3-0.1-2.5-0.3-3.3-0.5c-0.9-0.2-1.7-0.6-2.3-1.3
			c-0.7-0.7-1-1.7-1-2.9V168c0-0.8-0.2-1.3-0.5-1.7c-0.4-0.3-0.7-0.5-1.1-0.5c-8.4,0-16.5,0.3-24.4,0.8c-0.4,0-0.7,0.3-0.9,0.8
			c-0.3,0.5-0.4,1-0.4,1.6c0,0.6,0.1,1.1,0.3,1.4c0.2,0.3,0.5,0.6,1,0.8c0.1,0,0.8,0.1,2.1,0.3c1.5,0.2,2.7,0.4,3.7,0.7
			c0.9,0.3,1.8,0.9,2.5,1.8c0.7,0.9,1,2.2,1,3.9l-0.1,65.5c0,0.9-5.5,3.2-9.5,3.2c-4,0-9.1-2.2-9.6-3.2c-0.4-1-0.6-2.2-0.6-3.6
			v-29.5c0-3-0.8-5.6-2.5-7.9c-1.7-2.3-4.3-4.1-7.8-5.4c-3.5-1.3-8-1.9-13.4-1.9c-3.8,0-7.7,0.5-11.7,1.4c-4,0.9-7.4,2.4-10.2,4.3
			c-2.8,2-4.2,4.4-4.2,7.3c0,2.3,0.8,4.1,2.5,5.6c1.1,1,2.5,1.6,4,1.9c1.6,0.2,3.3-0.1,3.1-2.3c0-0.1,0-0.2,0-0.3
			c-0.4-4.5,1.8-9.1,7.4-11.5c0.2-0.1,0.5-0.2,0.7-0.3c1-0.5,3.1-0.9,6.1-0.9c2.7,0,4.7,0.6,6.1,1.8c1.4,1.2,2.1,3.5,2.1,6.7v9
			c-6.2,0.7-11.8,1.6-16.8,2.8c-4.9,1.2-9.1,3.2-12.6,5.9c-3.4,2.7-5.2,6.3-5.2,10.8c0,3.3,0.8,6,2.5,8.2c1.7,2.2,3.8,3.8,6.3,4.8
			c2.5,1,5,1.5,7.4,1.5c3.9,0,7.5-0.6,10.8-1.9c3.3-1.3,6.1-3.1,8.5-5.6v0.2c0,1.2,0.2,3.2,0.2,3.2s0.2,1.6,2.1,2.6
			c1.9,1,13.5,0.2,15.6,0.2h42.2c0.6,0,1-0.2,1.4-0.7c0.3-0.5,0.5-1,0.5-1.5C218.5,247.5,218.4,247,218.1,246.7 M155.5,239.8
			c-2.3,2.8-5.2,4.2-8.8,4.2c-2.3,0-4-0.7-5.3-2.1s-1.9-3.1-1.9-5.1c0-3.5,0.8-6.3,2.3-8.3c1.5-2,3.4-3.4,5.7-4.3
			c2.2-0.8,4.9-1.5,8-2V239.8z"/>
		<path class="st1" d="M117.2,244.8c-0.2-0.6-0.5-1.2-0.9-1.8c-0.4-0.6-0.7-0.8-0.9-0.7c-1.4,0.7-2.9,1.3-4.5,1.8
			c-1.6,0.5-3.1,0.7-4.3,0.7c-1.4,0-2.4-0.3-3.1-0.9c-0.7-0.6-1.2-1.7-1.5-3.3c-0.3-1.6-0.5-4-0.5-7.1V202h11.8
			c0.4,0,0.8-0.4,1.1-1.1c0.3-0.8,0.5-1.7,0.5-2.8c0-0.5-0.1-0.9-0.4-1.3c-0.2-0.4-0.6-0.6-1-0.6h-12.1v-15.3c0-0.6-0.4-1.1-1.2-1.4
			c-1.4-0.4-2.2,1.1-2.2,1.1c-3.7,8.5-10.9,15.1-19.9,17.9c0,0-1.8,0.4-1.4,2.3c0.1,0.2,0.1,0.3,0.2,0.5c0.3,0.5,0.6,0.8,0.9,0.8
			h5.9v36.2c0,5.1,1.6,8.7,4.7,10.8c3.1,2,7.3,3.1,12.6,3.1c1.6,0,3.5-0.3,5.7-0.9c2.2-0.6,4.2-1.4,6.1-2.4c1.9-1,3.3-1.9,4.2-2.9
			C117.4,245.8,117.4,245.4,117.2,244.8"/>
	</g>
</g>
</svg>
